<svg width="300" height="100" viewBox="0 0 300 100" fill="none" xmlns="http://www.w3.org/2000/svg">
<path d="M177.208 23.5792C172.752 19.0528 166.364 17.2847 160.155 17.2847C154.119 17.2847 147.786 18.0633 142 19.8196V73.6398L154.581 73.6008V61.6167C157.51 62.9114 160.668 63.5546 163.868 63.5546C169.396 63.5546 174.782 61.527 178.301 57.1364C182.05 52.4995 183.285 46.3437 183.285 40.5088C183.285 34.3916 181.609 28.032 177.208 23.5792ZM161.503 52.9191C159.176 52.9191 156.566 52.4215 154.581 51.1443V28.4316C156.387 28.1152 158.238 28.0054 160.069 28.0054C163.503 28.0054 166.092 29.1757 167.836 31.5167C169.58 33.8502 170.449 36.9584 170.449 40.8423C170.449 48.896 167.464 52.9191 161.503 52.9191Z" fill="white"/>
<path d="M191.52 48.843C191.52 52.7765 192.023 57.1164 194.939 60.03C197.341 62.4328 200.774 63.4568 204.057 63.9175V0H191.52V48.843Z" fill="white"/>
<path d="M246.516 22.0674C242.635 17.9855 236.552 17.145 231.199 17.145C226.246 17.145 221.093 17.8206 216.346 19.2691L217.959 29.455C221.678 28.0761 225.815 27.6718 229.757 27.6718C232.982 27.6718 235.237 28.3229 236.54 29.6254C237.586 30.6639 238.198 31.9819 238.408 33.5708C236.427 33.2351 234.397 33.1601 232.393 33.1601C227.614 33.1601 222.511 33.8937 218.377 36.4391C214.232 38.9814 212.184 43.3973 212.184 48.1753C212.184 52.9571 213.743 57.6224 217.827 60.4153C222.835 63.8455 229.608 64.1876 235.462 63.826C240.577 63.6182 245.635 62.7916 250.632 61.7018V35.3925C250.632 30.7082 249.848 25.6061 246.516 22.0674ZM238.493 53.2991C236.887 53.4158 235.274 53.4543 233.664 53.4543C229.794 53.4543 225.656 52.3868 225.656 47.8108C225.656 42.8992 231.166 42.2605 234.935 42.2605C236.123 42.2605 237.316 42.3536 238.493 42.5088V53.2991Z" fill="white"/>
<path d="M299.995 18.3003C294.391 37.1613 289.495 49.25 278.104 73.6474H265.71C268.141 69.495 269.967 65.0806 272.112 60.7875C265.173 47.2078 259.666 32.9378 255.415 18.3003H268.756C271.251 27.9674 274.36 37.5503 277.973 46.8574C281.502 37.5698 284.696 28.0193 286.942 18.3158L286.972 18.3544C286.972 18.3389 286.98 18.3158 286.988 18.3003H299.995Z" fill="white"/>
<path d="M0 40.8421C0 34.3686 1.91535 27.7835 6.58554 23.1115C10.4514 19.2456 15.8222 17.1172 21.2771 17.1172C27.5795 17.1172 32.5618 19.0457 36.2215 22.9003C41.7162 28.6925 42.0649 37.1026 41.4565 44.6414H12.9183C13.5849 50.787 19.7105 53.0847 25.1601 53.0847C29.2337 53.0847 33.6425 52.5457 37.4032 50.8894L39.0916 61.1051C34.49 63.4109 28.4728 63.8913 23.472 63.8913C16.9842 63.8913 10.2795 62.1099 5.69875 57.2641C1.55176 52.8736 0 46.7541 0 40.8421ZM29.5512 36.0294C29.4407 33.9621 28.9003 31.8308 27.5674 30.2035C26.0373 28.3446 23.8154 27.5018 21.4459 27.5018C19.1043 27.5018 16.8334 28.3094 15.282 30.1191C13.8784 31.7596 13.2493 33.9326 12.9183 36.0294H29.5512Z" fill="#01A3FB"/>
<path d="M61.4228 62.7095C54.1856 48.578 48.7519 33.4899 44.2196 18.2988H57.5594C60.0966 28.1606 63.1021 38.1067 66.8048 47.5963C70.2895 37.9695 73.4916 28.2164 76.0429 18.2988H89.0523C84.5198 33.4885 79.0934 48.5756 71.8634 62.7095H61.4228Z" fill="#01A3FB"/>
<path d="M134.427 40.4196C134.427 43.9102 133.921 47.1048 132.908 50.0025C131.895 52.9023 130.43 55.3784 128.517 57.4329C124.413 61.8391 118.586 63.8913 112.644 63.8913C99.3626 63.8913 90.7764 53.2234 90.7764 40.4196C90.7764 27.776 99.5544 17.1172 112.644 17.1172C115.852 17.1172 118.793 17.68 121.468 18.8053C130.156 22.4678 134.427 31.314 134.427 40.4196ZM121.594 40.4196C121.594 34.7172 119.407 27.9238 112.644 27.9238C105.877 27.9238 103.609 34.6917 103.609 40.4196C103.609 46.1282 105.853 53.0847 112.644 53.0847C119.431 53.0847 121.594 46.1027 121.594 40.4196Z" fill="#01A3FB"/>
<path d="M35.7819 94.2871H41.0666V92.4677H35.7819V89.5063H41.718V87.652H33.4375V99.657H42.1642V97.8034H35.7819V94.2871ZM59.3978 95.6199C57.4962 92.821 54.751 89.7524 52.9583 87.652H51.0409V99.657H53.3501V91.0646C55.734 93.7121 57.8149 96.6581 59.7316 99.657H61.723V87.652H59.3978V95.6199ZM70.2093 89.5396H74.1734V99.657H76.5359V89.5396H80.5004V87.652H70.2093V89.5396ZM91.3312 94.2871H96.6155V92.4677H91.3312V89.5063H97.2665V87.652H88.9857V99.657H97.7146V97.8034H91.3312V94.2871ZM113.309 94.7028C115.033 94.1252 115.895 93.2102 115.895 91.3935C115.895 90.0888 115.403 89.1191 114.415 88.4839C113.43 87.8481 112.007 87.5312 110.146 87.5312C108.96 87.5312 107.757 87.5898 106.592 87.8253V99.657H108.935V95.1183C109.579 95.1183 110.228 95.1432 110.871 95.1013C112.066 96.512 113.141 98.0498 114.054 99.657H116.678C115.794 97.8816 114.625 96.1866 113.309 94.7028ZM111.466 93.2648C110.628 93.3775 109.778 93.3515 108.935 93.3515V89.4714C109.808 89.3996 110.711 89.3711 111.578 89.515C112.611 89.6838 113.439 90.2761 113.439 91.3765C113.439 92.5496 112.569 93.117 111.466 93.2648ZM123.897 89.5396H127.862V99.657H130.226V89.5396H134.189V87.652H123.897V89.5396ZM147.55 87.652H145.313C143.344 91.5406 141.696 95.5802 140.162 99.657H142.6C142.947 98.7337 143.318 97.8041 143.664 96.8326H149.111C149.449 97.7826 149.843 98.7114 150.193 99.657H152.725C151.185 95.5819 149.528 91.5359 147.55 87.652ZM144.266 95.0665C144.927 93.3517 145.609 91.6388 146.387 89.9738C147.161 91.6415 147.846 93.352 148.508 95.0665H144.266ZM161.043 99.657H163.386V87.652H161.043V99.657ZM181.531 95.6199C180.058 93.4395 178.408 91.3699 176.693 89.3761C176.122 88.7122 175.589 88.1369 175.092 87.652H173.176V99.657H175.483V91.0646C177.305 93.0872 178.907 95.2983 180.453 97.5347C180.973 98.2906 181.445 98.9984 181.867 99.657H183.856V87.652H181.531V95.6199ZM206.375 87.652H204.262C202.742 90.1019 201.59 92.7882 200.373 95.395C199.16 92.7873 197.985 90.1001 196.466 87.652H194.297C193.748 91.6271 193.496 95.6516 193.292 99.657H195.599C195.704 96.7847 195.806 93.9084 196.093 91.0475C197.317 93.3347 198.36 95.7167 199.462 98.0627H201.211C202.298 95.7083 203.386 93.3498 204.579 91.0475C204.867 93.9085 204.967 96.7847 205.072 99.657H207.379C207.174 95.6478 206.893 91.6336 206.375 87.652ZM219.14 94.2871H224.427V92.4677H219.14V89.5063H225.077V87.652H216.795V99.657H225.524V97.8034H219.14V94.2871ZM242.757 95.6199C240.858 92.8198 238.746 90.023 236.316 87.652H234.4V99.657H236.707V91.0646C238.531 93.0817 240.138 95.296 241.677 97.5347C242.199 98.2906 242.669 98.9984 243.091 99.657H245.083V87.652H242.757V95.6199ZM253.569 87.652V89.5396H257.532V99.657H259.896V89.5396H263.861V87.652H253.569Z" fill="white"/>
</svg>