<svg width="300" height="94" viewBox="0 0 300 94" fill="none" xmlns="http://www.w3.org/2000/svg"><path fill-rule="evenodd" clip-rule="evenodd" d="M35.407 31.154 47.75 52.079c.387.57-.066 1.326-.725 1.323h-9.958a1.61 1.61 0 0 1-1.422-.824L24.205 32.31H11.197v20.074c0 .554-.464 1.018-1.018 1.018H1.018A1.028 1.028 0 0 1 0 52.384V1.04A1.028 1.028 0 0 1 1.002 0h26.002c10.71.16 19.191 3.088 19.191 15.828 0 9.57-4.41 13.975-10.788 15.326Zm-24.21-8.13H27.11c5.92 0 7.745-3.161 7.745-6.808s-1.798-6.597-7.745-6.597H11.198v13.404Z" fill="#fff"/><path d="M77.53 13.498c-1.581 2.308-1.992 5.552-1.992 8.28h30.129a1.03 1.03 0 0 1 1.018 1.018v7.24c0 .552-.471 1.018-1.018 1.018H75.538c0 2.923.287 6.39 1.992 8.877 2.046 2.767 5.412 4.165 8.802 4.195h19.335c.548.009 1.001.47 1.001 1.019v7.228c0 .56-.464 1.018-1.018 1.018H84.323c-11.772 0-21.321-10.327-21.321-23.057v-7.266C63.002 10.328 72.55 0 84.323 0h21.344c.555 0 1.018.464 1.018 1.018v7.267c0 .56-.465 1.018-1.018 1.018H86.348c-3.392.032-6.763 1.433-8.818 4.195ZM259.177 7.875a7.852 7.852 0 0 1-7.85 7.854 7.852 7.852 0 0 1-7.851-7.854 7.852 7.852 0 0 1 7.851-7.853 7.852 7.852 0 0 1 7.85 7.853ZM239.239 93.477c.708 0 1.062-.421 1.062-1.24l-.006-17.428c0-.858-.409-1.29-1.228-1.29-.704-.019-1.199.617-1.178 1.29v14.218l-10.285-14.733a1.683 1.683 0 0 0-1.372-.83c-.675 0-1.012.431-1.012 1.29v17.428c0 .824.393 1.24 1.178 1.24a1.067 1.067 0 0 0 1.206-1.185V77.908l10.29 14.794c.28.47.795.768 1.345.775ZM135.846 93.493c.785 0 1.178-.515 1.178-1.621l-2.871-16.775a1.816 1.816 0 0 0-1.859-1.616c-.782-.014-1.528.473-1.732 1.234l-4.132 14.44h-.05l-4.171-14.33c-.189-.827-.951-1.36-1.787-1.339-.965-.002-1.706.797-1.809 1.727l-2.85 16.548c-.263 1.239 0 1.868 1.052 1.959a1.245 1.245 0 0 0 1.338-1.19l2.302-15.917 4.719 15.917c.115.575.648.992 1.234.963a1.177 1.177 0 0 0 1.178-.963l4.774-15.911 2.252 15.806a1.13 1.13 0 0 0 1.234 1.068ZM17.388 84.335c0 3.365-.977 5.879-2.932 7.543-1.228 1.048-3.013 1.572-5.355 1.572-2.855 0-5.048-1.107-6.578-3.32A10.9 10.9 0 0 1 .52 83.786c-.022-2.893.705-5.282 2.18-7.167 1.532-1.976 3.973-3.07 6.456-3.078 2.372-.04 5.05.593 6.694 2.414.383.447.39 1.188-.088 1.566-.522.427-1.244.352-1.749-.056-1.352-1.11-2.911-1.867-4.69-1.843a5.378 5.378 0 0 0-4.809 2.58 9.506 9.506 0 0 0-1.416 5.108c-.022 2.79.756 4.985 2.335 6.586a4.98 4.98 0 0 0 3.502 1.456 6.457 6.457 0 0 0 2.982-.67c2.058-.993 3.087-2.827 3.087-5.502v-.852h-3.491a1.044 1.044 0 0 1-1.107-1.068c.061-.791.399-1.184 1.013-1.184h4.387c1.062 0 1.593.603 1.593 1.81l-.01.448ZM299.729 84.335c0 3.365-.978 5.879-2.932 7.543-1.228 1.048-3.013 1.572-5.356 1.572-2.854 0-5.047-1.107-6.577-3.32a10.937 10.937 0 0 1-2.003-6.343c-.022-2.893.704-5.282 2.18-7.167 1.531-1.976 3.973-3.07 6.456-3.078 2.372-.04 5.05.593 6.694 2.414.285.334.372.826.184 1.224-.134.28-.407.48-.698.575-.454.15-.957.007-1.323-.289-1.353-1.11-2.912-1.867-4.691-1.843a5.379 5.379 0 0 0-4.808 2.58 9.504 9.504 0 0 0-1.416 5.108c-.022 2.79.756 4.985 2.335 6.586a4.977 4.977 0 0 0 3.502 1.456 6.453 6.453 0 0 0 2.981-.67c2.058-.993 3.087-2.827 3.087-5.502v-.852h-3.49a1.044 1.044 0 0 1-.793-.285 1.06 1.06 0 0 1-.314-.783c.061-.791.398-1.184 1.012-1.184h4.388c1.062 0 1.593.603 1.593 1.81l-.011.448ZM181.974 92.071c0 .903-.387 1.35-1.156 1.35-.769 0-1.228-.43-1.228-1.294V74.81c0-.858.409-1.29 1.228-1.29.818 0 1.156.432 1.156 1.29V92.07Z" fill="#fff"/><path fill-rule="evenodd" clip-rule="evenodd" d="M73.486 93.477a1.307 1.307 0 0 1-1.234-.907l-1.295-3.542h-9.061L60.6 92.575c-.192.637-.815.902-1.436.852-.92-.073-.917-.944-.744-1.627l6.307-16.874c.24-.742.847-1.444 1.676-1.456.835-.002 1.448.65 1.699 1.4l6.395 16.93c.221.813.067 1.677-1.012 1.677Zm-3.242-6.53-3.79-10.621h-.066l-3.762 10.62h7.618Z" fill="#fff"/><path d="M300 7.876c.004 4.884-4.64 8.649-9.378 7.708-3.083-.611-5.558-3.086-6.171-6.168-.952-4.782 2.821-9.388 7.699-9.388 4.274 0 7.847 3.574 7.85 7.848ZM259.177 46.07a7.852 7.852 0 0 1-7.85 7.853 7.852 7.852 0 0 1-7.851-7.854 7.852 7.852 0 1 1 15.701 0ZM300 46.07c0 4.874-4.6 8.653-9.382 7.702-3.082-.614-5.555-3.089-6.168-6.17-.95-4.782 2.824-9.386 7.7-9.386 4.277 0 7.85 3.577 7.85 7.853ZM279.586 26.959c-.003-4.274-3.575-7.848-7.85-7.848-4.877 0-8.652 4.606-7.7 9.387.614 3.083 3.089 5.557 6.171 6.17 4.784.95 9.382-2.834 9.379-7.709Z" fill="#fff"/><path fill-rule="evenodd" clip-rule="evenodd" d="M230.57 52.123 208.684.902a1.242 1.242 0 0 0-1.107-.858h-9.476a1.226 1.226 0 0 0-1.107.858l-21.919 51.221c-.318.57.115 1.279.753 1.279h9.748a1.245 1.245 0 0 0 1.139-.786l4.503-11.905h23.192l4.503 11.905c.177.465.639.785 1.14.786h9.742c.653.03 1.128-.722.775-1.279Zm-35.756-20.909 8.011-20.655 8.005 20.655h-16.016Z" fill="#fff"/><path d="M160.359 53.392a.95.95 0 0 0 .841-1.019v-7.228a.95.95 0 0 0-.841-1.018h-16.043a8.686 8.686 0 0 1-7.309-4.223 8.863 8.863 0 0 1-.868-3.636V.902a1.029 1.029 0 0 0-1.012-.874h-9.162c-.649 0-1.073.59-1.018 1.201v34.84a17.668 17.668 0 0 0 5.308 12.285 17.656 17.656 0 0 0 12.395 5.038h17.709Z" fill="#fff"/></svg>